<svg id="Layer_1" data-name="Layer 1" xmlns="http://www.w3.org/2000/svg" viewBox="0 0 1165 1165"><defs><style>.cls-1{fill:#ff6c6c;}</style></defs><title>develop-svg</title><path id="Logo" class="cls-1" d="M898.37,1.42H267.25C120.24,1.42.63,121,.63,268V899.16c0,147,119.61,266.62,266.62,266.62H898.37c147,0,266.63-119.61,266.63-266.62V268C1165,121,1045.39,1.42,898.37,1.42ZM819.14,685.2A134.72,134.72,0,0,1,684.42,819.93H481.21A134.72,134.72,0,0,1,346.49,685.2V482A134.72,134.72,0,0,1,481.21,347.27H684.42A134.72,134.72,0,0,1,819.14,482Z"/></svg>